<svg id="visual" viewBox="0 0 900 600" width="900" height="600" xmlns="http://www.w3.org/2000/svg" xmlns:xlink="http://www.w3.org/1999/xlink" version="1.1"><rect x="0" y="0" width="900" height="600" fill="#fff"></rect><defs><linearGradient id="grad1_0" x1="33.3%" y1="0%" x2="100%" y2="100%"><stop offset="20%" stop-color="#ffffff" stop-opacity="1"></stop><stop offset="80%" stop-color="#ffffff" stop-opacity="1"></stop></linearGradient></defs><defs><linearGradient id="grad2_0" x1="0%" y1="0%" x2="66.7%" y2="100%"><stop offset="20%" stop-color="#ffffff" stop-opacity="1"></stop><stop offset="80%" stop-color="#ffffff" stop-opacity="1"></stop></linearGradient></defs><g transform="translate(900, 0)"><path d="M0 432.7C-39.7 413.6 -79.5 394.6 -125.2 385.2C-170.8 375.7 -222.5 375.8 -254.3 350C-286.1 324.2 -298.1 272.5 -320.4 232.8C-342.6 193 -375.2 165.3 -395.6 128.6C-416.1 91.8 -424.4 45.9 -432.7 0L0 0Z" fill="#f4f3fb"></path></g><g transform="translate(0, 600)"><path d="M0 -432.7C43.6 -418.6 87.2 -404.6 125.8 -387.1C164.3 -369.5 197.8 -348.5 238.6 -328.5C279.5 -308.4 327.6 -289.4 350 -254.3C372.4 -219.2 369 -168.1 378.5 -123C388 -77.9 410.3 -39 432.7 0L0 0Z" fill="#f4f3fb"></path></g></svg>