<svg id="visual" viewBox="0 0 900 600" width="900" height="600" xmlns="http://www.w3.org/2000/svg" xmlns:xlink="http://www.w3.org/1999/xlink" version="1.1"><rect x="0" y="0" width="900" height="600" fill="#FFFFFF"></rect><path d="M0 240L129 240L129 240L257 240L257 259L386 259L386 343L514 343L514 308L643 308L643 260L771 260L771 304L900 304L900 232L900 0L900 0L771 0L771 0L643 0L643 0L514 0L514 0L386 0L386 0L257 0L257 0L129 0L129 0L0 0Z" fill="#222425"></path><path d="M0 229L129 229L129 244L257 244L257 183L386 183L386 213L514 213L514 194L643 194L643 206L771 206L771 249L900 249L900 190L900 0L900 0L771 0L771 0L643 0L643 0L514 0L514 0L386 0L386 0L257 0L257 0L129 0L129 0L0 0Z" fill="#202223"></path><path d="M0 69L129 69L129 60L257 60L257 135L386 135L386 142L514 142L514 125L643 125L643 55L771 55L771 98L900 98L900 124L900 0L900 0L771 0L771 0L643 0L643 0L514 0L514 0L386 0L386 0L257 0L257 0L129 0L129 0L0 0Z" fill="#1e2022"></path></svg>