<svg id="visual" viewBox="0 0 1920 1080" width="1920" height="1080" xmlns="http://www.w3.org/2000/svg" xmlns:xlink="http://www.w3.org/1999/xlink" version="1.1"><rect x="0" y="0" width="1920" height="1080" fill="#002233"></rect><path d="M628 0L596.7 25.7C565.3 51.3 502.7 102.7 440.8 154.2C379 205.7 318 257.3 336.5 308.8C355 360.3 453 411.7 470.2 463C487.3 514.3 423.7 565.7 427 617C430.3 668.3 500.7 719.7 543.7 771.2C586.7 822.7 602.3 874.3 610.7 925.8C619 977.3 620 1028.7 620.5 1054.3L621 1080L0 1080L0 1054.3C0 1028.7 0 977.3 0 925.8C0 874.3 0 822.7 0 771.2C0 719.7 0 668.3 0 617C0 565.7 0 514.3 0 463C0 411.7 0 360.3 0 308.8C0 257.3 0 205.7 0 154.2C0 102.7 0 51.3 0 25.7L0 0Z" fill="#fff" stroke-linecap="round" stroke-linejoin="miter"></path></svg>